<?xml version="1.0" encoding="iso-8859-1"?>
<!-- Uploaded to: SVG Repo, www.svgrepo.com, Generator: SVG Repo Mixer Tools -->
<svg height="800px" width="800px" version="1.1" id="Layer_1" xmlns="http://www.w3.org/2000/svg" xmlns:xlink="http://www.w3.org/1999/xlink" 
	 viewBox="0 0 297.001 297.001" xml:space="preserve">
<g>
	<path style="fill:#17AB93;" d="M175.991,122.476C169.504,99.772,160.254,88.26,148.5,88.26s-21.004,11.512-27.491,34.216
		c-5.386,18.852-8.353,43.767-8.353,70.155c0,54.815,27.562,98.635,28.735,100.473c1.549,2.428,4.229,3.897,7.109,3.897
		c2.88,0,5.559-1.469,7.109-3.897c1.173-1.838,28.735-45.657,28.735-100.473C184.344,166.243,181.377,141.328,175.991,122.476z"/>
	<g>
		<path style="fill:#BFF796;" d="M170.178,159.104h-43.357c-4.191,0-7.589-3.398-7.589-7.589c0-4.191,3.398-7.589,7.589-7.589
			h43.357c4.191,0,7.589,3.398,7.589,7.589C177.768,155.706,174.37,159.104,170.178,159.104z"/>
	</g>
	<path style="fill:#11937A;" d="M175.991,122.476C169.504,99.772,160.254,88.26,148.5,88.26c-0.445,0-0.885,0.022-1.323,0.055
		v208.568c0.435,0.069,0.875,0.117,1.323,0.117c2.88,0,5.559-1.469,7.109-3.897c1.173-1.838,28.735-45.657,28.735-100.473
		C184.344,166.243,181.377,141.328,175.991,122.476z"/>
	<g>
		<path style="fill:#AFE286;" d="M170.178,143.925h-23.001v15.179h23.001c4.191,0,7.589-3.398,7.589-7.589
			C177.768,147.323,174.37,143.925,170.178,143.925z"/>
	</g>
	<path style="fill:#BFF796;" d="M174.378,21.313C164.104,8.366,151.386,0,141.979,0c-3.991,0-7.566,1.461-10.067,4.116
		c-1.712,1.816-3.751,5.085-3.751,10.346c0,12.594-4.994,18.849-10.776,26.089c-6.11,7.652-13.035,16.326-13.035,31.513
		c0,24.344,19.806,44.15,44.15,44.15s44.15-19.806,44.15-44.15C192.65,54.185,186.16,36.161,174.378,21.313z"/>
	<path style="fill:#AFE286;" d="M174.378,21.313c-8.482-10.689-18.625-18.241-27.2-20.555V116.18
		c0.44,0.013,0.879,0.034,1.323,0.034c24.344,0,44.15-19.806,44.15-44.15C192.65,54.185,186.16,36.161,174.378,21.313z"/>
</g>
</svg>